<mxfile host="65bd71144e">
    <diagram id="NuMuyJ0UBDDyV1lLQY9N" name="Step 1 - Define the purpose of the DB">
        <mxGraphModel dx="989" dy="667" grid="1" gridSize="10" guides="1" tooltips="1" connect="1" arrows="1" fold="1" page="1" pageScale="1" pageWidth="827" pageHeight="1169" math="0" shadow="0">
            <root>
                <mxCell id="0"/>
                <mxCell id="1" parent="0"/>
                <mxCell id="2" value="Products" style="ellipse;shape=cloud;whiteSpace=wrap;html=1;" parent="1" vertex="1">
                    <mxGeometry x="150" y="290" width="120" height="80" as="geometry"/>
                </mxCell>
                <mxCell id="3" value="Sets" style="ellipse;shape=cloud;whiteSpace=wrap;html=1;" parent="1" vertex="1">
                    <mxGeometry x="200" y="170" width="170" height="80" as="geometry"/>
                </mxCell>
                <mxCell id="4" value="" style="shape=actor;whiteSpace=wrap;html=1;" parent="1" vertex="1">
                    <mxGeometry x="374" y="350" width="40" height="60" as="geometry"/>
                </mxCell>
                <mxCell id="5" value="Bids" style="ellipse;shape=cloud;whiteSpace=wrap;html=1;" parent="1" vertex="1">
                    <mxGeometry x="490" y="290" width="140" height="80" as="geometry"/>
                </mxCell>
                <mxCell id="6" value="Customers" style="ellipse;shape=cloud;whiteSpace=wrap;html=1;" parent="1" vertex="1">
                    <mxGeometry x="400" y="170" width="120" height="80" as="geometry"/>
                </mxCell>
            </root>
        </mxGraphModel>
    </diagram>
    <diagram id="O3U2NHLkLz26aXM3maAr" name="Step 2 - The ERM">
        <mxGraphModel dx="1627" dy="562" grid="1" gridSize="10" guides="1" tooltips="1" connect="1" arrows="1" fold="1" page="1" pageScale="1" pageWidth="827" pageHeight="1169" math="0" shadow="0">
            <root>
                <mxCell id="SugYGAc_b5lUKjztGZmf-0"/>
                <mxCell id="SugYGAc_b5lUKjztGZmf-1" parent="SugYGAc_b5lUKjztGZmf-0"/>
                <mxCell id="1OKOIQU5MxFZJk9DVA5E-12" value="" style="edgeStyle=none;html=1;endArrow=none;endFill=0;startArrow=ERone;startFill=0;" parent="SugYGAc_b5lUKjztGZmf-1" source="1OKOIQU5MxFZJk9DVA5E-0" target="1OKOIQU5MxFZJk9DVA5E-11" edge="1">
                    <mxGeometry relative="1" as="geometry"/>
                </mxCell>
                <mxCell id="1OKOIQU5MxFZJk9DVA5E-0" value="Set" style="whiteSpace=wrap;html=1;align=center;" parent="SugYGAc_b5lUKjztGZmf-1" vertex="1">
                    <mxGeometry x="360" y="270" width="100" height="40" as="geometry"/>
                </mxCell>
                <mxCell id="1OKOIQU5MxFZJk9DVA5E-3" style="edgeStyle=none;html=1;exitX=0;exitY=1;exitDx=0;exitDy=0;endArrow=none;endFill=0;" parent="SugYGAc_b5lUKjztGZmf-1" source="1OKOIQU5MxFZJk9DVA5E-1" target="1OKOIQU5MxFZJk9DVA5E-0" edge="1">
                    <mxGeometry relative="1" as="geometry"/>
                </mxCell>
                <mxCell id="1OKOIQU5MxFZJk9DVA5E-1" value="&lt;u&gt;CatalogNr&lt;/u&gt;" style="ellipse;whiteSpace=wrap;html=1;align=center;" parent="SugYGAc_b5lUKjztGZmf-1" vertex="1">
                    <mxGeometry x="450" y="160" width="100" height="40" as="geometry"/>
                </mxCell>
                <mxCell id="1OKOIQU5MxFZJk9DVA5E-4" style="edgeStyle=none;html=1;exitX=0;exitY=1;exitDx=0;exitDy=0;endArrow=none;endFill=0;" parent="SugYGAc_b5lUKjztGZmf-1" source="1OKOIQU5MxFZJk9DVA5E-2" target="1OKOIQU5MxFZJk9DVA5E-0" edge="1">
                    <mxGeometry relative="1" as="geometry"/>
                </mxCell>
                <mxCell id="1OKOIQU5MxFZJk9DVA5E-2" value="Start Price" style="ellipse;whiteSpace=wrap;html=1;align=center;" parent="SugYGAc_b5lUKjztGZmf-1" vertex="1">
                    <mxGeometry x="520" y="210" width="100" height="40" as="geometry"/>
                </mxCell>
                <mxCell id="1OKOIQU5MxFZJk9DVA5E-6" style="edgeStyle=none;html=1;exitX=0;exitY=0.5;exitDx=0;exitDy=0;entryX=1;entryY=0.5;entryDx=0;entryDy=0;endArrow=none;endFill=0;" parent="SugYGAc_b5lUKjztGZmf-1" source="1OKOIQU5MxFZJk9DVA5E-5" target="1OKOIQU5MxFZJk9DVA5E-0" edge="1">
                    <mxGeometry relative="1" as="geometry"/>
                </mxCell>
                <mxCell id="1OKOIQU5MxFZJk9DVA5E-5" value="Highest Bid" style="ellipse;whiteSpace=wrap;html=1;align=center;" parent="SugYGAc_b5lUKjztGZmf-1" vertex="1">
                    <mxGeometry x="530" y="280" width="100" height="40" as="geometry"/>
                </mxCell>
                <mxCell id="1OKOIQU5MxFZJk9DVA5E-8" style="edgeStyle=none;html=1;exitX=0;exitY=0;exitDx=0;exitDy=0;entryX=1;entryY=1;entryDx=0;entryDy=0;endArrow=none;endFill=0;" parent="SugYGAc_b5lUKjztGZmf-1" source="1OKOIQU5MxFZJk9DVA5E-7" target="1OKOIQU5MxFZJk9DVA5E-0" edge="1">
                    <mxGeometry relative="1" as="geometry"/>
                </mxCell>
                <mxCell id="1OKOIQU5MxFZJk9DVA5E-7" value="Remaining auction time" style="ellipse;whiteSpace=wrap;html=1;align=center;" parent="SugYGAc_b5lUKjztGZmf-1" vertex="1">
                    <mxGeometry x="470" y="350" width="100" height="40" as="geometry"/>
                </mxCell>
                <mxCell id="1OKOIQU5MxFZJk9DVA5E-13" value="" style="edgeStyle=none;html=1;endArrow=none;endFill=0;startArrow=ERmany;startFill=0;" parent="SugYGAc_b5lUKjztGZmf-1" source="1OKOIQU5MxFZJk9DVA5E-9" target="1OKOIQU5MxFZJk9DVA5E-11" edge="1">
                    <mxGeometry relative="1" as="geometry"/>
                </mxCell>
                <mxCell id="1OKOIQU5MxFZJk9DVA5E-9" value="Product" style="whiteSpace=wrap;html=1;align=center;" parent="SugYGAc_b5lUKjztGZmf-1" vertex="1">
                    <mxGeometry x="30" y="270" width="100" height="40" as="geometry"/>
                </mxCell>
                <mxCell id="1OKOIQU5MxFZJk9DVA5E-11" value="grouped" style="shape=rhombus;perimeter=rhombusPerimeter;whiteSpace=wrap;html=1;align=center;" parent="SugYGAc_b5lUKjztGZmf-1" vertex="1">
                    <mxGeometry x="190" y="260" width="120" height="60" as="geometry"/>
                </mxCell>
                <mxCell id="1OKOIQU5MxFZJk9DVA5E-15" style="edgeStyle=none;html=1;exitX=1;exitY=1;exitDx=0;exitDy=0;entryX=0.25;entryY=0;entryDx=0;entryDy=0;startArrow=none;startFill=0;endArrow=none;endFill=0;" parent="SugYGAc_b5lUKjztGZmf-1" source="1OKOIQU5MxFZJk9DVA5E-14" target="1OKOIQU5MxFZJk9DVA5E-9" edge="1">
                    <mxGeometry relative="1" as="geometry"/>
                </mxCell>
                <mxCell id="1OKOIQU5MxFZJk9DVA5E-14" value="&lt;u&gt;Product Code&lt;/u&gt;" style="ellipse;whiteSpace=wrap;html=1;align=center;" parent="SugYGAc_b5lUKjztGZmf-1" vertex="1">
                    <mxGeometry x="-60" y="190" width="100" height="40" as="geometry"/>
                </mxCell>
                <mxCell id="1OKOIQU5MxFZJk9DVA5E-17" style="edgeStyle=none;html=1;exitX=1;exitY=0.5;exitDx=0;exitDy=0;entryX=0;entryY=0.5;entryDx=0;entryDy=0;startArrow=none;startFill=0;endArrow=none;endFill=0;" parent="SugYGAc_b5lUKjztGZmf-1" source="1OKOIQU5MxFZJk9DVA5E-16" target="1OKOIQU5MxFZJk9DVA5E-9" edge="1">
                    <mxGeometry relative="1" as="geometry"/>
                </mxCell>
                <mxCell id="1OKOIQU5MxFZJk9DVA5E-16" value="Name" style="ellipse;whiteSpace=wrap;html=1;align=center;" parent="SugYGAc_b5lUKjztGZmf-1" vertex="1">
                    <mxGeometry x="-120" y="270" width="100" height="40" as="geometry"/>
                </mxCell>
                <mxCell id="1OKOIQU5MxFZJk9DVA5E-19" style="edgeStyle=none;html=1;exitX=1;exitY=0;exitDx=0;exitDy=0;entryX=0;entryY=1;entryDx=0;entryDy=0;startArrow=none;startFill=0;endArrow=none;endFill=0;" parent="SugYGAc_b5lUKjztGZmf-1" source="1OKOIQU5MxFZJk9DVA5E-18" target="1OKOIQU5MxFZJk9DVA5E-9" edge="1">
                    <mxGeometry relative="1" as="geometry"/>
                </mxCell>
                <mxCell id="1OKOIQU5MxFZJk9DVA5E-18" value="Description" style="ellipse;whiteSpace=wrap;html=1;align=center;" parent="SugYGAc_b5lUKjztGZmf-1" vertex="1">
                    <mxGeometry x="-90" y="340" width="100" height="40" as="geometry"/>
                </mxCell>
                <mxCell id="1OKOIQU5MxFZJk9DVA5E-21" style="edgeStyle=none;html=1;exitX=0.5;exitY=1;exitDx=0;exitDy=0;entryX=0.75;entryY=0;entryDx=0;entryDy=0;startArrow=none;startFill=0;endArrow=none;endFill=0;" parent="SugYGAc_b5lUKjztGZmf-1" source="1OKOIQU5MxFZJk9DVA5E-20" target="1OKOIQU5MxFZJk9DVA5E-9" edge="1">
                    <mxGeometry relative="1" as="geometry"/>
                </mxCell>
                <mxCell id="1OKOIQU5MxFZJk9DVA5E-20" value="Photo" style="ellipse;whiteSpace=wrap;html=1;align=center;" parent="SugYGAc_b5lUKjztGZmf-1" vertex="1">
                    <mxGeometry x="70" y="170" width="100" height="40" as="geometry"/>
                </mxCell>
                <mxCell id="1OKOIQU5MxFZJk9DVA5E-23" style="edgeStyle=none;html=1;entryX=0.5;entryY=1;entryDx=0;entryDy=0;startArrow=none;startFill=0;endArrow=ERone;endFill=0;" parent="SugYGAc_b5lUKjztGZmf-1" source="1OKOIQU5MxFZJk9DVA5E-22" target="1OKOIQU5MxFZJk9DVA5E-0" edge="1">
                    <mxGeometry relative="1" as="geometry"/>
                </mxCell>
                <mxCell id="1OKOIQU5MxFZJk9DVA5E-22" value="has" style="shape=rhombus;perimeter=rhombusPerimeter;whiteSpace=wrap;html=1;align=center;" parent="SugYGAc_b5lUKjztGZmf-1" vertex="1">
                    <mxGeometry x="350" y="410" width="120" height="60" as="geometry"/>
                </mxCell>
                <mxCell id="1OKOIQU5MxFZJk9DVA5E-25" style="edgeStyle=none;html=1;exitX=0.5;exitY=0;exitDx=0;exitDy=0;entryX=0.5;entryY=1;entryDx=0;entryDy=0;startArrow=ERmany;startFill=0;endArrow=none;endFill=0;" parent="SugYGAc_b5lUKjztGZmf-1" source="1OKOIQU5MxFZJk9DVA5E-24" target="1OKOIQU5MxFZJk9DVA5E-22" edge="1">
                    <mxGeometry relative="1" as="geometry"/>
                </mxCell>
                <mxCell id="1OKOIQU5MxFZJk9DVA5E-29" style="edgeStyle=none;html=1;exitX=1;exitY=0;exitDx=0;exitDy=0;entryX=0.087;entryY=0.767;entryDx=0;entryDy=0;entryPerimeter=0;startArrow=none;startFill=0;endArrow=none;endFill=0;" parent="SugYGAc_b5lUKjztGZmf-1" source="1OKOIQU5MxFZJk9DVA5E-24" target="1OKOIQU5MxFZJk9DVA5E-26" edge="1">
                    <mxGeometry relative="1" as="geometry"/>
                </mxCell>
                <mxCell id="1OKOIQU5MxFZJk9DVA5E-30" style="edgeStyle=none;html=1;exitX=1;exitY=0.5;exitDx=0;exitDy=0;entryX=0;entryY=0.5;entryDx=0;entryDy=0;startArrow=none;startFill=0;endArrow=none;endFill=0;" parent="SugYGAc_b5lUKjztGZmf-1" source="1OKOIQU5MxFZJk9DVA5E-24" target="1OKOIQU5MxFZJk9DVA5E-27" edge="1">
                    <mxGeometry relative="1" as="geometry"/>
                </mxCell>
                <mxCell id="1OKOIQU5MxFZJk9DVA5E-31" style="edgeStyle=none;html=1;exitX=1;exitY=1;exitDx=0;exitDy=0;entryX=0.41;entryY=-0.006;entryDx=0;entryDy=0;entryPerimeter=0;startArrow=none;startFill=0;endArrow=none;endFill=0;" parent="SugYGAc_b5lUKjztGZmf-1" source="1OKOIQU5MxFZJk9DVA5E-24" target="1OKOIQU5MxFZJk9DVA5E-28" edge="1">
                    <mxGeometry relative="1" as="geometry"/>
                </mxCell>
                <mxCell id="1OKOIQU5MxFZJk9DVA5E-24" value="Bid" style="whiteSpace=wrap;html=1;align=center;" parent="SugYGAc_b5lUKjztGZmf-1" vertex="1">
                    <mxGeometry x="360" y="565" width="100" height="40" as="geometry"/>
                </mxCell>
                <mxCell id="1OKOIQU5MxFZJk9DVA5E-26" value="Amount" style="ellipse;whiteSpace=wrap;html=1;align=center;" parent="SugYGAc_b5lUKjztGZmf-1" vertex="1">
                    <mxGeometry x="500" y="510" width="100" height="40" as="geometry"/>
                </mxCell>
                <mxCell id="1OKOIQU5MxFZJk9DVA5E-27" value="Date" style="ellipse;whiteSpace=wrap;html=1;align=center;" parent="SugYGAc_b5lUKjztGZmf-1" vertex="1">
                    <mxGeometry x="540" y="585" width="100" height="40" as="geometry"/>
                </mxCell>
                <mxCell id="1OKOIQU5MxFZJk9DVA5E-28" value="Hour" style="ellipse;whiteSpace=wrap;html=1;align=center;" parent="SugYGAc_b5lUKjztGZmf-1" vertex="1">
                    <mxGeometry x="460" y="660" width="100" height="40" as="geometry"/>
                </mxCell>
                <mxCell id="1OKOIQU5MxFZJk9DVA5E-33" style="edgeStyle=none;html=1;entryX=0;entryY=0.5;entryDx=0;entryDy=0;startArrow=none;startFill=0;endArrow=ERmany;endFill=0;" parent="SugYGAc_b5lUKjztGZmf-1" source="1OKOIQU5MxFZJk9DVA5E-32" target="1OKOIQU5MxFZJk9DVA5E-24" edge="1">
                    <mxGeometry relative="1" as="geometry"/>
                </mxCell>
                <mxCell id="1OKOIQU5MxFZJk9DVA5E-32" value="makes" style="shape=rhombus;perimeter=rhombusPerimeter;whiteSpace=wrap;html=1;align=center;" parent="SugYGAc_b5lUKjztGZmf-1" vertex="1">
                    <mxGeometry x="140" y="555" width="120" height="60" as="geometry"/>
                </mxCell>
                <mxCell id="1OKOIQU5MxFZJk9DVA5E-36" value="" style="edgeStyle=none;html=1;startArrow=ERmany;startFill=0;endArrow=none;endFill=0;" parent="SugYGAc_b5lUKjztGZmf-1" source="1OKOIQU5MxFZJk9DVA5E-35" target="1OKOIQU5MxFZJk9DVA5E-32" edge="1">
                    <mxGeometry relative="1" as="geometry"/>
                </mxCell>
                <mxCell id="1OKOIQU5MxFZJk9DVA5E-41" style="edgeStyle=none;html=1;exitX=0.5;exitY=0;exitDx=0;exitDy=0;entryX=0.5;entryY=1;entryDx=0;entryDy=0;startArrow=none;startFill=0;endArrow=none;endFill=0;" parent="SugYGAc_b5lUKjztGZmf-1" source="1OKOIQU5MxFZJk9DVA5E-35" target="1OKOIQU5MxFZJk9DVA5E-40" edge="1">
                    <mxGeometry relative="1" as="geometry"/>
                </mxCell>
                <mxCell id="1OKOIQU5MxFZJk9DVA5E-42" style="edgeStyle=none;html=1;exitX=0.25;exitY=0;exitDx=0;exitDy=0;entryX=0.962;entryY=0.691;entryDx=0;entryDy=0;entryPerimeter=0;startArrow=none;startFill=0;endArrow=none;endFill=0;" parent="SugYGAc_b5lUKjztGZmf-1" source="1OKOIQU5MxFZJk9DVA5E-35" target="1OKOIQU5MxFZJk9DVA5E-37" edge="1">
                    <mxGeometry relative="1" as="geometry"/>
                </mxCell>
                <mxCell id="1OKOIQU5MxFZJk9DVA5E-43" style="edgeStyle=none;html=1;exitX=0;exitY=0.5;exitDx=0;exitDy=0;entryX=1;entryY=0.5;entryDx=0;entryDy=0;startArrow=none;startFill=0;endArrow=none;endFill=0;" parent="SugYGAc_b5lUKjztGZmf-1" source="1OKOIQU5MxFZJk9DVA5E-35" target="1OKOIQU5MxFZJk9DVA5E-38" edge="1">
                    <mxGeometry relative="1" as="geometry"/>
                </mxCell>
                <mxCell id="1OKOIQU5MxFZJk9DVA5E-44" style="edgeStyle=none;html=1;exitX=0.5;exitY=1;exitDx=0;exitDy=0;entryX=0.95;entryY=0.241;entryDx=0;entryDy=0;entryPerimeter=0;startArrow=none;startFill=0;endArrow=none;endFill=0;" parent="SugYGAc_b5lUKjztGZmf-1" source="1OKOIQU5MxFZJk9DVA5E-35" target="1OKOIQU5MxFZJk9DVA5E-39" edge="1">
                    <mxGeometry relative="1" as="geometry"/>
                </mxCell>
                <mxCell id="1OKOIQU5MxFZJk9DVA5E-35" value="Customer" style="whiteSpace=wrap;html=1;align=center;" parent="SugYGAc_b5lUKjztGZmf-1" vertex="1">
                    <mxGeometry x="-50" y="565" width="100" height="40" as="geometry"/>
                </mxCell>
                <mxCell id="1OKOIQU5MxFZJk9DVA5E-37" value="Username" style="ellipse;whiteSpace=wrap;html=1;align=center;" parent="SugYGAc_b5lUKjztGZmf-1" vertex="1">
                    <mxGeometry x="-170" y="500" width="100" height="40" as="geometry"/>
                </mxCell>
                <mxCell id="1OKOIQU5MxFZJk9DVA5E-38" value="Password" style="ellipse;whiteSpace=wrap;html=1;align=center;" parent="SugYGAc_b5lUKjztGZmf-1" vertex="1">
                    <mxGeometry x="-200" y="575" width="100" height="40" as="geometry"/>
                </mxCell>
                <mxCell id="1OKOIQU5MxFZJk9DVA5E-39" value="Name" style="ellipse;whiteSpace=wrap;html=1;align=center;" parent="SugYGAc_b5lUKjztGZmf-1" vertex="1">
                    <mxGeometry x="-130" y="650" width="100" height="40" as="geometry"/>
                </mxCell>
                <mxCell id="1OKOIQU5MxFZJk9DVA5E-40" value="E-Mail" style="ellipse;whiteSpace=wrap;html=1;align=center;" parent="SugYGAc_b5lUKjztGZmf-1" vertex="1">
                    <mxGeometry x="-30" y="480" width="100" height="40" as="geometry"/>
                </mxCell>
                <mxCell id="oR1ZXLP26CgzgL2JLLEW-1" style="edgeStyle=none;html=1;exitX=0.5;exitY=0;exitDx=0;exitDy=0;entryX=0.5;entryY=1;entryDx=0;entryDy=0;startArrow=none;startFill=0;endArrow=none;endFill=0;" edge="1" parent="SugYGAc_b5lUKjztGZmf-1" source="oR1ZXLP26CgzgL2JLLEW-0" target="1OKOIQU5MxFZJk9DVA5E-24">
                    <mxGeometry relative="1" as="geometry"/>
                </mxCell>
                <mxCell id="oR1ZXLP26CgzgL2JLLEW-0" value="&lt;u&gt;Bid_ID&lt;/u&gt;" style="ellipse;whiteSpace=wrap;html=1;align=center;" vertex="1" parent="SugYGAc_b5lUKjztGZmf-1">
                    <mxGeometry x="330" y="660" width="100" height="40" as="geometry"/>
                </mxCell>
                <mxCell id="oR1ZXLP26CgzgL2JLLEW-3" style="edgeStyle=none;html=1;exitX=0;exitY=0;exitDx=0;exitDy=0;entryX=0.853;entryY=0.992;entryDx=0;entryDy=0;entryPerimeter=0;startArrow=none;startFill=0;endArrow=none;endFill=0;" edge="1" parent="SugYGAc_b5lUKjztGZmf-1" source="oR1ZXLP26CgzgL2JLLEW-2" target="1OKOIQU5MxFZJk9DVA5E-35">
                    <mxGeometry relative="1" as="geometry"/>
                </mxCell>
                <mxCell id="oR1ZXLP26CgzgL2JLLEW-2" value="&lt;u&gt;Customer_ID&lt;/u&gt;" style="ellipse;whiteSpace=wrap;html=1;align=center;" vertex="1" parent="SugYGAc_b5lUKjztGZmf-1">
                    <mxGeometry x="40" y="650" width="100" height="40" as="geometry"/>
                </mxCell>
            </root>
        </mxGraphModel>
    </diagram>
    <diagram id="lYJBItrS1kzm_RbvxHhG" name="Step 3 - UML">
        <mxGraphModel dx="800" dy="562" grid="1" gridSize="10" guides="1" tooltips="1" connect="1" arrows="1" fold="1" page="1" pageScale="1" pageWidth="827" pageHeight="1169" math="0" shadow="0">
            <root>
                <mxCell id="tmoW70O3WnlVBGm4fVCz-0"/>
                <mxCell id="tmoW70O3WnlVBGm4fVCz-1" parent="tmoW70O3WnlVBGm4fVCz-0"/>
                <mxCell id="0zEOe7WRsroMmA6jBmiA-0" value="Product" style="shape=table;startSize=30;container=1;collapsible=1;childLayout=tableLayout;fixedRows=1;rowLines=0;fontStyle=1;align=center;resizeLast=1;" parent="tmoW70O3WnlVBGm4fVCz-1" vertex="1">
                    <mxGeometry x="50" y="150" width="180" height="160" as="geometry"/>
                </mxCell>
                <mxCell id="0zEOe7WRsroMmA6jBmiA-1" value="" style="shape=partialRectangle;collapsible=0;dropTarget=0;pointerEvents=0;fillColor=none;top=0;left=0;bottom=1;right=0;points=[[0,0.5],[1,0.5]];portConstraint=eastwest;" parent="0zEOe7WRsroMmA6jBmiA-0" vertex="1">
                    <mxGeometry y="30" width="180" height="30" as="geometry"/>
                </mxCell>
                <mxCell id="0zEOe7WRsroMmA6jBmiA-2" value="PK" style="shape=partialRectangle;connectable=0;fillColor=none;top=0;left=0;bottom=0;right=0;fontStyle=1;overflow=hidden;" parent="0zEOe7WRsroMmA6jBmiA-1" vertex="1">
                    <mxGeometry width="30" height="30" as="geometry">
                        <mxRectangle width="30" height="30" as="alternateBounds"/>
                    </mxGeometry>
                </mxCell>
                <mxCell id="0zEOe7WRsroMmA6jBmiA-3" value="Product_Code: int" style="shape=partialRectangle;connectable=0;fillColor=none;top=0;left=0;bottom=0;right=0;align=left;spacingLeft=6;fontStyle=5;overflow=hidden;" parent="0zEOe7WRsroMmA6jBmiA-1" vertex="1">
                    <mxGeometry x="30" width="150" height="30" as="geometry">
                        <mxRectangle width="150" height="30" as="alternateBounds"/>
                    </mxGeometry>
                </mxCell>
                <mxCell id="0zEOe7WRsroMmA6jBmiA-4" value="" style="shape=partialRectangle;collapsible=0;dropTarget=0;pointerEvents=0;fillColor=none;top=0;left=0;bottom=0;right=0;points=[[0,0.5],[1,0.5]];portConstraint=eastwest;" parent="0zEOe7WRsroMmA6jBmiA-0" vertex="1">
                    <mxGeometry y="60" width="180" height="30" as="geometry"/>
                </mxCell>
                <mxCell id="0zEOe7WRsroMmA6jBmiA-5" value="" style="shape=partialRectangle;connectable=0;fillColor=none;top=0;left=0;bottom=0;right=0;editable=1;overflow=hidden;" parent="0zEOe7WRsroMmA6jBmiA-4" vertex="1">
                    <mxGeometry width="30" height="30" as="geometry">
                        <mxRectangle width="30" height="30" as="alternateBounds"/>
                    </mxGeometry>
                </mxCell>
                <mxCell id="0zEOe7WRsroMmA6jBmiA-6" value="Name: string" style="shape=partialRectangle;connectable=0;fillColor=none;top=0;left=0;bottom=0;right=0;align=left;spacingLeft=6;overflow=hidden;" parent="0zEOe7WRsroMmA6jBmiA-4" vertex="1">
                    <mxGeometry x="30" width="150" height="30" as="geometry">
                        <mxRectangle width="150" height="30" as="alternateBounds"/>
                    </mxGeometry>
                </mxCell>
                <mxCell id="0zEOe7WRsroMmA6jBmiA-7" value="" style="shape=partialRectangle;collapsible=0;dropTarget=0;pointerEvents=0;fillColor=none;top=0;left=0;bottom=0;right=0;points=[[0,0.5],[1,0.5]];portConstraint=eastwest;" parent="0zEOe7WRsroMmA6jBmiA-0" vertex="1">
                    <mxGeometry y="90" width="180" height="30" as="geometry"/>
                </mxCell>
                <mxCell id="0zEOe7WRsroMmA6jBmiA-8" value="" style="shape=partialRectangle;connectable=0;fillColor=none;top=0;left=0;bottom=0;right=0;editable=1;overflow=hidden;" parent="0zEOe7WRsroMmA6jBmiA-7" vertex="1">
                    <mxGeometry width="30" height="30" as="geometry">
                        <mxRectangle width="30" height="30" as="alternateBounds"/>
                    </mxGeometry>
                </mxCell>
                <mxCell id="0zEOe7WRsroMmA6jBmiA-9" value="Description: string" style="shape=partialRectangle;connectable=0;fillColor=none;top=0;left=0;bottom=0;right=0;align=left;spacingLeft=6;overflow=hidden;" parent="0zEOe7WRsroMmA6jBmiA-7" vertex="1">
                    <mxGeometry x="30" width="150" height="30" as="geometry">
                        <mxRectangle width="150" height="30" as="alternateBounds"/>
                    </mxGeometry>
                </mxCell>
                <mxCell id="0zEOe7WRsroMmA6jBmiA-10" value="" style="shape=partialRectangle;collapsible=0;dropTarget=0;pointerEvents=0;fillColor=none;top=0;left=0;bottom=0;right=0;points=[[0,0.5],[1,0.5]];portConstraint=eastwest;" parent="0zEOe7WRsroMmA6jBmiA-0" vertex="1">
                    <mxGeometry y="120" width="180" height="30" as="geometry"/>
                </mxCell>
                <mxCell id="0zEOe7WRsroMmA6jBmiA-11" value="" style="shape=partialRectangle;connectable=0;fillColor=none;top=0;left=0;bottom=0;right=0;editable=1;overflow=hidden;" parent="0zEOe7WRsroMmA6jBmiA-10" vertex="1">
                    <mxGeometry width="30" height="30" as="geometry">
                        <mxRectangle width="30" height="30" as="alternateBounds"/>
                    </mxGeometry>
                </mxCell>
                <mxCell id="0zEOe7WRsroMmA6jBmiA-12" value="Photo: string" style="shape=partialRectangle;connectable=0;fillColor=none;top=0;left=0;bottom=0;right=0;align=left;spacingLeft=6;overflow=hidden;" parent="0zEOe7WRsroMmA6jBmiA-10" vertex="1">
                    <mxGeometry x="30" width="150" height="30" as="geometry">
                        <mxRectangle width="150" height="30" as="alternateBounds"/>
                    </mxGeometry>
                </mxCell>
                <mxCell id="nLSzG5If9FQ-TACCYGOi-0" value="Set" style="shape=table;startSize=30;container=1;collapsible=1;childLayout=tableLayout;fixedRows=1;rowLines=0;fontStyle=1;align=center;resizeLast=1;" vertex="1" parent="tmoW70O3WnlVBGm4fVCz-1">
                    <mxGeometry x="340" y="150" width="200" height="160" as="geometry"/>
                </mxCell>
                <mxCell id="nLSzG5If9FQ-TACCYGOi-1" value="" style="shape=partialRectangle;collapsible=0;dropTarget=0;pointerEvents=0;fillColor=none;top=0;left=0;bottom=1;right=0;points=[[0,0.5],[1,0.5]];portConstraint=eastwest;" vertex="1" parent="nLSzG5If9FQ-TACCYGOi-0">
                    <mxGeometry y="30" width="200" height="30" as="geometry"/>
                </mxCell>
                <mxCell id="nLSzG5If9FQ-TACCYGOi-2" value="PK" style="shape=partialRectangle;connectable=0;fillColor=none;top=0;left=0;bottom=0;right=0;fontStyle=1;overflow=hidden;" vertex="1" parent="nLSzG5If9FQ-TACCYGOi-1">
                    <mxGeometry width="30" height="30" as="geometry">
                        <mxRectangle width="30" height="30" as="alternateBounds"/>
                    </mxGeometry>
                </mxCell>
                <mxCell id="nLSzG5If9FQ-TACCYGOi-3" value="CatalogNr: int" style="shape=partialRectangle;connectable=0;fillColor=none;top=0;left=0;bottom=0;right=0;align=left;spacingLeft=6;fontStyle=5;overflow=hidden;" vertex="1" parent="nLSzG5If9FQ-TACCYGOi-1">
                    <mxGeometry x="30" width="170" height="30" as="geometry">
                        <mxRectangle width="170" height="30" as="alternateBounds"/>
                    </mxGeometry>
                </mxCell>
                <mxCell id="nLSzG5If9FQ-TACCYGOi-4" value="" style="shape=partialRectangle;collapsible=0;dropTarget=0;pointerEvents=0;fillColor=none;top=0;left=0;bottom=0;right=0;points=[[0,0.5],[1,0.5]];portConstraint=eastwest;" vertex="1" parent="nLSzG5If9FQ-TACCYGOi-0">
                    <mxGeometry y="60" width="200" height="30" as="geometry"/>
                </mxCell>
                <mxCell id="nLSzG5If9FQ-TACCYGOi-5" value="" style="shape=partialRectangle;connectable=0;fillColor=none;top=0;left=0;bottom=0;right=0;editable=1;overflow=hidden;" vertex="1" parent="nLSzG5If9FQ-TACCYGOi-4">
                    <mxGeometry width="30" height="30" as="geometry">
                        <mxRectangle width="30" height="30" as="alternateBounds"/>
                    </mxGeometry>
                </mxCell>
                <mxCell id="nLSzG5If9FQ-TACCYGOi-6" value="Start Price: int" style="shape=partialRectangle;connectable=0;fillColor=none;top=0;left=0;bottom=0;right=0;align=left;spacingLeft=6;overflow=hidden;" vertex="1" parent="nLSzG5If9FQ-TACCYGOi-4">
                    <mxGeometry x="30" width="170" height="30" as="geometry">
                        <mxRectangle width="170" height="30" as="alternateBounds"/>
                    </mxGeometry>
                </mxCell>
                <mxCell id="nLSzG5If9FQ-TACCYGOi-7" value="" style="shape=partialRectangle;collapsible=0;dropTarget=0;pointerEvents=0;fillColor=none;top=0;left=0;bottom=0;right=0;points=[[0,0.5],[1,0.5]];portConstraint=eastwest;" vertex="1" parent="nLSzG5If9FQ-TACCYGOi-0">
                    <mxGeometry y="90" width="200" height="30" as="geometry"/>
                </mxCell>
                <mxCell id="nLSzG5If9FQ-TACCYGOi-8" value="" style="shape=partialRectangle;connectable=0;fillColor=none;top=0;left=0;bottom=0;right=0;editable=1;overflow=hidden;" vertex="1" parent="nLSzG5If9FQ-TACCYGOi-7">
                    <mxGeometry width="30" height="30" as="geometry">
                        <mxRectangle width="30" height="30" as="alternateBounds"/>
                    </mxGeometry>
                </mxCell>
                <mxCell id="nLSzG5If9FQ-TACCYGOi-9" value="Highest Bid: int" style="shape=partialRectangle;connectable=0;fillColor=none;top=0;left=0;bottom=0;right=0;align=left;spacingLeft=6;overflow=hidden;" vertex="1" parent="nLSzG5If9FQ-TACCYGOi-7">
                    <mxGeometry x="30" width="170" height="30" as="geometry">
                        <mxRectangle width="170" height="30" as="alternateBounds"/>
                    </mxGeometry>
                </mxCell>
                <mxCell id="nLSzG5If9FQ-TACCYGOi-10" value="" style="shape=partialRectangle;collapsible=0;dropTarget=0;pointerEvents=0;fillColor=none;top=0;left=0;bottom=0;right=0;points=[[0,0.5],[1,0.5]];portConstraint=eastwest;" vertex="1" parent="nLSzG5If9FQ-TACCYGOi-0">
                    <mxGeometry y="120" width="200" height="30" as="geometry"/>
                </mxCell>
                <mxCell id="nLSzG5If9FQ-TACCYGOi-11" value="" style="shape=partialRectangle;connectable=0;fillColor=none;top=0;left=0;bottom=0;right=0;editable=1;overflow=hidden;" vertex="1" parent="nLSzG5If9FQ-TACCYGOi-10">
                    <mxGeometry width="30" height="30" as="geometry">
                        <mxRectangle width="30" height="30" as="alternateBounds"/>
                    </mxGeometry>
                </mxCell>
                <mxCell id="nLSzG5If9FQ-TACCYGOi-12" value="Remaining Auction Time: int" style="shape=partialRectangle;connectable=0;fillColor=none;top=0;left=0;bottom=0;right=0;align=left;spacingLeft=6;overflow=hidden;" vertex="1" parent="nLSzG5If9FQ-TACCYGOi-10">
                    <mxGeometry x="30" width="170" height="30" as="geometry">
                        <mxRectangle width="170" height="30" as="alternateBounds"/>
                    </mxGeometry>
                </mxCell>
                <mxCell id="eCgFE-RFY1fOgHoZ_h63-0" style="edgeStyle=none;html=1;exitX=1;exitY=0.5;exitDx=0;exitDy=0;entryX=0;entryY=0.5;entryDx=0;entryDy=0;endArrow=ERone;endFill=0;startArrow=ERmany;startFill=0;" edge="1" parent="tmoW70O3WnlVBGm4fVCz-1" source="0zEOe7WRsroMmA6jBmiA-4" target="nLSzG5If9FQ-TACCYGOi-4">
                    <mxGeometry relative="1" as="geometry"/>
                </mxCell>
                <mxCell id="tA6Jn5VgjRgeQv_Ts8WU-0" value="Bid" style="shape=table;startSize=30;container=1;collapsible=1;childLayout=tableLayout;fixedRows=1;rowLines=0;fontStyle=1;align=center;resizeLast=1;" vertex="1" parent="tmoW70O3WnlVBGm4fVCz-1">
                    <mxGeometry x="640" y="150" width="180" height="160" as="geometry"/>
                </mxCell>
                <mxCell id="tA6Jn5VgjRgeQv_Ts8WU-1" value="" style="shape=partialRectangle;collapsible=0;dropTarget=0;pointerEvents=0;fillColor=none;top=0;left=0;bottom=1;right=0;points=[[0,0.5],[1,0.5]];portConstraint=eastwest;" vertex="1" parent="tA6Jn5VgjRgeQv_Ts8WU-0">
                    <mxGeometry y="30" width="180" height="30" as="geometry"/>
                </mxCell>
                <mxCell id="tA6Jn5VgjRgeQv_Ts8WU-2" value="PK" style="shape=partialRectangle;connectable=0;fillColor=none;top=0;left=0;bottom=0;right=0;fontStyle=1;overflow=hidden;" vertex="1" parent="tA6Jn5VgjRgeQv_Ts8WU-1">
                    <mxGeometry width="30" height="30" as="geometry">
                        <mxRectangle width="30" height="30" as="alternateBounds"/>
                    </mxGeometry>
                </mxCell>
                <mxCell id="tA6Jn5VgjRgeQv_Ts8WU-3" value="Bid_ID: int" style="shape=partialRectangle;connectable=0;fillColor=none;top=0;left=0;bottom=0;right=0;align=left;spacingLeft=6;fontStyle=5;overflow=hidden;" vertex="1" parent="tA6Jn5VgjRgeQv_Ts8WU-1">
                    <mxGeometry x="30" width="150" height="30" as="geometry">
                        <mxRectangle width="150" height="30" as="alternateBounds"/>
                    </mxGeometry>
                </mxCell>
                <mxCell id="tA6Jn5VgjRgeQv_Ts8WU-4" value="" style="shape=partialRectangle;collapsible=0;dropTarget=0;pointerEvents=0;fillColor=none;top=0;left=0;bottom=0;right=0;points=[[0,0.5],[1,0.5]];portConstraint=eastwest;" vertex="1" parent="tA6Jn5VgjRgeQv_Ts8WU-0">
                    <mxGeometry y="60" width="180" height="30" as="geometry"/>
                </mxCell>
                <mxCell id="tA6Jn5VgjRgeQv_Ts8WU-5" value="" style="shape=partialRectangle;connectable=0;fillColor=none;top=0;left=0;bottom=0;right=0;editable=1;overflow=hidden;" vertex="1" parent="tA6Jn5VgjRgeQv_Ts8WU-4">
                    <mxGeometry width="30" height="30" as="geometry">
                        <mxRectangle width="30" height="30" as="alternateBounds"/>
                    </mxGeometry>
                </mxCell>
                <mxCell id="tA6Jn5VgjRgeQv_Ts8WU-6" value="Hour: int" style="shape=partialRectangle;connectable=0;fillColor=none;top=0;left=0;bottom=0;right=0;align=left;spacingLeft=6;overflow=hidden;" vertex="1" parent="tA6Jn5VgjRgeQv_Ts8WU-4">
                    <mxGeometry x="30" width="150" height="30" as="geometry">
                        <mxRectangle width="150" height="30" as="alternateBounds"/>
                    </mxGeometry>
                </mxCell>
                <mxCell id="tA6Jn5VgjRgeQv_Ts8WU-7" value="" style="shape=partialRectangle;collapsible=0;dropTarget=0;pointerEvents=0;fillColor=none;top=0;left=0;bottom=0;right=0;points=[[0,0.5],[1,0.5]];portConstraint=eastwest;" vertex="1" parent="tA6Jn5VgjRgeQv_Ts8WU-0">
                    <mxGeometry y="90" width="180" height="30" as="geometry"/>
                </mxCell>
                <mxCell id="tA6Jn5VgjRgeQv_Ts8WU-8" value="" style="shape=partialRectangle;connectable=0;fillColor=none;top=0;left=0;bottom=0;right=0;editable=1;overflow=hidden;" vertex="1" parent="tA6Jn5VgjRgeQv_Ts8WU-7">
                    <mxGeometry width="30" height="30" as="geometry">
                        <mxRectangle width="30" height="30" as="alternateBounds"/>
                    </mxGeometry>
                </mxCell>
                <mxCell id="tA6Jn5VgjRgeQv_Ts8WU-9" value="Date: string" style="shape=partialRectangle;connectable=0;fillColor=none;top=0;left=0;bottom=0;right=0;align=left;spacingLeft=6;overflow=hidden;" vertex="1" parent="tA6Jn5VgjRgeQv_Ts8WU-7">
                    <mxGeometry x="30" width="150" height="30" as="geometry">
                        <mxRectangle width="150" height="30" as="alternateBounds"/>
                    </mxGeometry>
                </mxCell>
                <mxCell id="tA6Jn5VgjRgeQv_Ts8WU-10" value="" style="shape=partialRectangle;collapsible=0;dropTarget=0;pointerEvents=0;fillColor=none;top=0;left=0;bottom=0;right=0;points=[[0,0.5],[1,0.5]];portConstraint=eastwest;" vertex="1" parent="tA6Jn5VgjRgeQv_Ts8WU-0">
                    <mxGeometry y="120" width="180" height="30" as="geometry"/>
                </mxCell>
                <mxCell id="tA6Jn5VgjRgeQv_Ts8WU-11" value="" style="shape=partialRectangle;connectable=0;fillColor=none;top=0;left=0;bottom=0;right=0;editable=1;overflow=hidden;" vertex="1" parent="tA6Jn5VgjRgeQv_Ts8WU-10">
                    <mxGeometry width="30" height="30" as="geometry">
                        <mxRectangle width="30" height="30" as="alternateBounds"/>
                    </mxGeometry>
                </mxCell>
                <mxCell id="tA6Jn5VgjRgeQv_Ts8WU-12" value="Amount: int" style="shape=partialRectangle;connectable=0;fillColor=none;top=0;left=0;bottom=0;right=0;align=left;spacingLeft=6;overflow=hidden;" vertex="1" parent="tA6Jn5VgjRgeQv_Ts8WU-10">
                    <mxGeometry x="30" width="150" height="30" as="geometry">
                        <mxRectangle width="150" height="30" as="alternateBounds"/>
                    </mxGeometry>
                </mxCell>
                <mxCell id="tA6Jn5VgjRgeQv_Ts8WU-13" style="edgeStyle=none;html=1;exitX=1;exitY=0.5;exitDx=0;exitDy=0;startArrow=ERone;startFill=0;endArrow=ERmany;endFill=0;" edge="1" parent="tmoW70O3WnlVBGm4fVCz-1" source="nLSzG5If9FQ-TACCYGOi-4" target="tA6Jn5VgjRgeQv_Ts8WU-4">
                    <mxGeometry relative="1" as="geometry"/>
                </mxCell>
                <mxCell id="U3lJewYFcPEOtTGCVkHa-0" value="Customer" style="shape=table;startSize=30;container=1;collapsible=1;childLayout=tableLayout;fixedRows=1;rowLines=0;fontStyle=1;align=center;resizeLast=1;" vertex="1" parent="tmoW70O3WnlVBGm4fVCz-1">
                    <mxGeometry x="970" y="150" width="180" height="190" as="geometry"/>
                </mxCell>
                <mxCell id="U3lJewYFcPEOtTGCVkHa-1" value="" style="shape=partialRectangle;collapsible=0;dropTarget=0;pointerEvents=0;fillColor=none;top=0;left=0;bottom=1;right=0;points=[[0,0.5],[1,0.5]];portConstraint=eastwest;" vertex="1" parent="U3lJewYFcPEOtTGCVkHa-0">
                    <mxGeometry y="30" width="180" height="30" as="geometry"/>
                </mxCell>
                <mxCell id="U3lJewYFcPEOtTGCVkHa-2" value="PK" style="shape=partialRectangle;connectable=0;fillColor=none;top=0;left=0;bottom=0;right=0;fontStyle=1;overflow=hidden;" vertex="1" parent="U3lJewYFcPEOtTGCVkHa-1">
                    <mxGeometry width="30" height="30" as="geometry">
                        <mxRectangle width="30" height="30" as="alternateBounds"/>
                    </mxGeometry>
                </mxCell>
                <mxCell id="U3lJewYFcPEOtTGCVkHa-3" value="Customer_ID: int" style="shape=partialRectangle;connectable=0;fillColor=none;top=0;left=0;bottom=0;right=0;align=left;spacingLeft=6;fontStyle=5;overflow=hidden;" vertex="1" parent="U3lJewYFcPEOtTGCVkHa-1">
                    <mxGeometry x="30" width="150" height="30" as="geometry">
                        <mxRectangle width="150" height="30" as="alternateBounds"/>
                    </mxGeometry>
                </mxCell>
                <mxCell id="U3lJewYFcPEOtTGCVkHa-4" value="" style="shape=partialRectangle;collapsible=0;dropTarget=0;pointerEvents=0;fillColor=none;top=0;left=0;bottom=0;right=0;points=[[0,0.5],[1,0.5]];portConstraint=eastwest;" vertex="1" parent="U3lJewYFcPEOtTGCVkHa-0">
                    <mxGeometry y="60" width="180" height="30" as="geometry"/>
                </mxCell>
                <mxCell id="U3lJewYFcPEOtTGCVkHa-5" value="" style="shape=partialRectangle;connectable=0;fillColor=none;top=0;left=0;bottom=0;right=0;editable=1;overflow=hidden;" vertex="1" parent="U3lJewYFcPEOtTGCVkHa-4">
                    <mxGeometry width="30" height="30" as="geometry">
                        <mxRectangle width="30" height="30" as="alternateBounds"/>
                    </mxGeometry>
                </mxCell>
                <mxCell id="U3lJewYFcPEOtTGCVkHa-6" value="Username: string" style="shape=partialRectangle;connectable=0;fillColor=none;top=0;left=0;bottom=0;right=0;align=left;spacingLeft=6;overflow=hidden;" vertex="1" parent="U3lJewYFcPEOtTGCVkHa-4">
                    <mxGeometry x="30" width="150" height="30" as="geometry">
                        <mxRectangle width="150" height="30" as="alternateBounds"/>
                    </mxGeometry>
                </mxCell>
                <mxCell id="U3lJewYFcPEOtTGCVkHa-7" value="" style="shape=partialRectangle;collapsible=0;dropTarget=0;pointerEvents=0;fillColor=none;top=0;left=0;bottom=0;right=0;points=[[0,0.5],[1,0.5]];portConstraint=eastwest;" vertex="1" parent="U3lJewYFcPEOtTGCVkHa-0">
                    <mxGeometry y="90" width="180" height="30" as="geometry"/>
                </mxCell>
                <mxCell id="U3lJewYFcPEOtTGCVkHa-8" value="" style="shape=partialRectangle;connectable=0;fillColor=none;top=0;left=0;bottom=0;right=0;editable=1;overflow=hidden;" vertex="1" parent="U3lJewYFcPEOtTGCVkHa-7">
                    <mxGeometry width="30" height="30" as="geometry">
                        <mxRectangle width="30" height="30" as="alternateBounds"/>
                    </mxGeometry>
                </mxCell>
                <mxCell id="U3lJewYFcPEOtTGCVkHa-9" value="Name: string" style="shape=partialRectangle;connectable=0;fillColor=none;top=0;left=0;bottom=0;right=0;align=left;spacingLeft=6;overflow=hidden;" vertex="1" parent="U3lJewYFcPEOtTGCVkHa-7">
                    <mxGeometry x="30" width="150" height="30" as="geometry">
                        <mxRectangle width="150" height="30" as="alternateBounds"/>
                    </mxGeometry>
                </mxCell>
                <mxCell id="U3lJewYFcPEOtTGCVkHa-10" value="" style="shape=partialRectangle;collapsible=0;dropTarget=0;pointerEvents=0;fillColor=none;top=0;left=0;bottom=0;right=0;points=[[0,0.5],[1,0.5]];portConstraint=eastwest;" vertex="1" parent="U3lJewYFcPEOtTGCVkHa-0">
                    <mxGeometry y="120" width="180" height="30" as="geometry"/>
                </mxCell>
                <mxCell id="U3lJewYFcPEOtTGCVkHa-11" value="" style="shape=partialRectangle;connectable=0;fillColor=none;top=0;left=0;bottom=0;right=0;editable=1;overflow=hidden;" vertex="1" parent="U3lJewYFcPEOtTGCVkHa-10">
                    <mxGeometry width="30" height="30" as="geometry">
                        <mxRectangle width="30" height="30" as="alternateBounds"/>
                    </mxGeometry>
                </mxCell>
                <mxCell id="U3lJewYFcPEOtTGCVkHa-12" value="Password: string" style="shape=partialRectangle;connectable=0;fillColor=none;top=0;left=0;bottom=0;right=0;align=left;spacingLeft=6;overflow=hidden;" vertex="1" parent="U3lJewYFcPEOtTGCVkHa-10">
                    <mxGeometry x="30" width="150" height="30" as="geometry">
                        <mxRectangle width="150" height="30" as="alternateBounds"/>
                    </mxGeometry>
                </mxCell>
                <mxCell id="SsSaWL71XKEabW4TB-0Y-0" value="" style="shape=partialRectangle;collapsible=0;dropTarget=0;pointerEvents=0;fillColor=none;top=0;left=0;bottom=0;right=0;points=[[0,0.5],[1,0.5]];portConstraint=eastwest;" vertex="1" parent="U3lJewYFcPEOtTGCVkHa-0">
                    <mxGeometry y="150" width="180" height="30" as="geometry"/>
                </mxCell>
                <mxCell id="SsSaWL71XKEabW4TB-0Y-1" value="" style="shape=partialRectangle;connectable=0;fillColor=none;top=0;left=0;bottom=0;right=0;editable=1;overflow=hidden;" vertex="1" parent="SsSaWL71XKEabW4TB-0Y-0">
                    <mxGeometry width="30" height="30" as="geometry">
                        <mxRectangle width="30" height="30" as="alternateBounds"/>
                    </mxGeometry>
                </mxCell>
                <mxCell id="SsSaWL71XKEabW4TB-0Y-2" value="E-Mail: string" style="shape=partialRectangle;connectable=0;fillColor=none;top=0;left=0;bottom=0;right=0;align=left;spacingLeft=6;overflow=hidden;" vertex="1" parent="SsSaWL71XKEabW4TB-0Y-0">
                    <mxGeometry x="30" width="150" height="30" as="geometry">
                        <mxRectangle width="150" height="30" as="alternateBounds"/>
                    </mxGeometry>
                </mxCell>
                <mxCell id="U3lJewYFcPEOtTGCVkHa-13" style="edgeStyle=none;html=1;exitX=1;exitY=0.5;exitDx=0;exitDy=0;entryX=0;entryY=0.5;entryDx=0;entryDy=0;startArrow=ERmany;startFill=0;endArrow=ERmany;endFill=0;" edge="1" parent="tmoW70O3WnlVBGm4fVCz-1" source="tA6Jn5VgjRgeQv_Ts8WU-4" target="U3lJewYFcPEOtTGCVkHa-4">
                    <mxGeometry relative="1" as="geometry"/>
                </mxCell>
            </root>
        </mxGraphModel>
    </diagram>
    <diagram id="h3dlu8bpGFOVv6ghujL7" name="Step 4 - Norm.">
        <mxGraphModel dx="800" dy="562" grid="1" gridSize="10" guides="1" tooltips="1" connect="1" arrows="1" fold="1" page="1" pageScale="1" pageWidth="827" pageHeight="1169" math="0" shadow="0">
            <root>
                <mxCell id="qjB7M2fl9DO1ppy_1SeX-0"/>
                <mxCell id="qjB7M2fl9DO1ppy_1SeX-1" parent="qjB7M2fl9DO1ppy_1SeX-0"/>
                <mxCell id="OYG8sfYQL-JVr8ezUTwl-0" value="Product" style="shape=table;startSize=30;container=1;collapsible=1;childLayout=tableLayout;fixedRows=1;rowLines=0;fontStyle=1;align=center;resizeLast=1;" vertex="1" parent="qjB7M2fl9DO1ppy_1SeX-1">
                    <mxGeometry x="50" y="150" width="180" height="160" as="geometry"/>
                </mxCell>
                <mxCell id="OYG8sfYQL-JVr8ezUTwl-1" value="" style="shape=partialRectangle;collapsible=0;dropTarget=0;pointerEvents=0;fillColor=none;top=0;left=0;bottom=1;right=0;points=[[0,0.5],[1,0.5]];portConstraint=eastwest;" vertex="1" parent="OYG8sfYQL-JVr8ezUTwl-0">
                    <mxGeometry y="30" width="180" height="30" as="geometry"/>
                </mxCell>
                <mxCell id="OYG8sfYQL-JVr8ezUTwl-2" value="PK" style="shape=partialRectangle;connectable=0;fillColor=none;top=0;left=0;bottom=0;right=0;fontStyle=1;overflow=hidden;" vertex="1" parent="OYG8sfYQL-JVr8ezUTwl-1">
                    <mxGeometry width="30" height="30" as="geometry">
                        <mxRectangle width="30" height="30" as="alternateBounds"/>
                    </mxGeometry>
                </mxCell>
                <mxCell id="OYG8sfYQL-JVr8ezUTwl-3" value="Product_Code: int" style="shape=partialRectangle;connectable=0;fillColor=none;top=0;left=0;bottom=0;right=0;align=left;spacingLeft=6;fontStyle=5;overflow=hidden;" vertex="1" parent="OYG8sfYQL-JVr8ezUTwl-1">
                    <mxGeometry x="30" width="150" height="30" as="geometry">
                        <mxRectangle width="150" height="30" as="alternateBounds"/>
                    </mxGeometry>
                </mxCell>
                <mxCell id="OYG8sfYQL-JVr8ezUTwl-4" value="" style="shape=partialRectangle;collapsible=0;dropTarget=0;pointerEvents=0;fillColor=none;top=0;left=0;bottom=0;right=0;points=[[0,0.5],[1,0.5]];portConstraint=eastwest;" vertex="1" parent="OYG8sfYQL-JVr8ezUTwl-0">
                    <mxGeometry y="60" width="180" height="30" as="geometry"/>
                </mxCell>
                <mxCell id="OYG8sfYQL-JVr8ezUTwl-5" value="" style="shape=partialRectangle;connectable=0;fillColor=none;top=0;left=0;bottom=0;right=0;editable=1;overflow=hidden;" vertex="1" parent="OYG8sfYQL-JVr8ezUTwl-4">
                    <mxGeometry width="30" height="30" as="geometry">
                        <mxRectangle width="30" height="30" as="alternateBounds"/>
                    </mxGeometry>
                </mxCell>
                <mxCell id="OYG8sfYQL-JVr8ezUTwl-6" value="Name: string" style="shape=partialRectangle;connectable=0;fillColor=none;top=0;left=0;bottom=0;right=0;align=left;spacingLeft=6;overflow=hidden;" vertex="1" parent="OYG8sfYQL-JVr8ezUTwl-4">
                    <mxGeometry x="30" width="150" height="30" as="geometry">
                        <mxRectangle width="150" height="30" as="alternateBounds"/>
                    </mxGeometry>
                </mxCell>
                <mxCell id="OYG8sfYQL-JVr8ezUTwl-7" value="" style="shape=partialRectangle;collapsible=0;dropTarget=0;pointerEvents=0;fillColor=none;top=0;left=0;bottom=0;right=0;points=[[0,0.5],[1,0.5]];portConstraint=eastwest;" vertex="1" parent="OYG8sfYQL-JVr8ezUTwl-0">
                    <mxGeometry y="90" width="180" height="30" as="geometry"/>
                </mxCell>
                <mxCell id="OYG8sfYQL-JVr8ezUTwl-8" value="" style="shape=partialRectangle;connectable=0;fillColor=none;top=0;left=0;bottom=0;right=0;editable=1;overflow=hidden;" vertex="1" parent="OYG8sfYQL-JVr8ezUTwl-7">
                    <mxGeometry width="30" height="30" as="geometry">
                        <mxRectangle width="30" height="30" as="alternateBounds"/>
                    </mxGeometry>
                </mxCell>
                <mxCell id="OYG8sfYQL-JVr8ezUTwl-9" value="Description: string" style="shape=partialRectangle;connectable=0;fillColor=none;top=0;left=0;bottom=0;right=0;align=left;spacingLeft=6;overflow=hidden;" vertex="1" parent="OYG8sfYQL-JVr8ezUTwl-7">
                    <mxGeometry x="30" width="150" height="30" as="geometry">
                        <mxRectangle width="150" height="30" as="alternateBounds"/>
                    </mxGeometry>
                </mxCell>
                <mxCell id="OYG8sfYQL-JVr8ezUTwl-10" value="" style="shape=partialRectangle;collapsible=0;dropTarget=0;pointerEvents=0;fillColor=none;top=0;left=0;bottom=0;right=0;points=[[0,0.5],[1,0.5]];portConstraint=eastwest;" vertex="1" parent="OYG8sfYQL-JVr8ezUTwl-0">
                    <mxGeometry y="120" width="180" height="30" as="geometry"/>
                </mxCell>
                <mxCell id="OYG8sfYQL-JVr8ezUTwl-11" value="" style="shape=partialRectangle;connectable=0;fillColor=none;top=0;left=0;bottom=0;right=0;editable=1;overflow=hidden;" vertex="1" parent="OYG8sfYQL-JVr8ezUTwl-10">
                    <mxGeometry width="30" height="30" as="geometry">
                        <mxRectangle width="30" height="30" as="alternateBounds"/>
                    </mxGeometry>
                </mxCell>
                <mxCell id="OYG8sfYQL-JVr8ezUTwl-12" value="Photo: string" style="shape=partialRectangle;connectable=0;fillColor=none;top=0;left=0;bottom=0;right=0;align=left;spacingLeft=6;overflow=hidden;" vertex="1" parent="OYG8sfYQL-JVr8ezUTwl-10">
                    <mxGeometry x="30" width="150" height="30" as="geometry">
                        <mxRectangle width="150" height="30" as="alternateBounds"/>
                    </mxGeometry>
                </mxCell>
                <mxCell id="OYG8sfYQL-JVr8ezUTwl-13" value="Set" style="shape=table;startSize=30;container=1;collapsible=1;childLayout=tableLayout;fixedRows=1;rowLines=0;fontStyle=1;align=center;resizeLast=1;" vertex="1" parent="qjB7M2fl9DO1ppy_1SeX-1">
                    <mxGeometry x="340" y="150" width="200" height="160" as="geometry"/>
                </mxCell>
                <mxCell id="OYG8sfYQL-JVr8ezUTwl-14" value="" style="shape=partialRectangle;collapsible=0;dropTarget=0;pointerEvents=0;fillColor=none;top=0;left=0;bottom=1;right=0;points=[[0,0.5],[1,0.5]];portConstraint=eastwest;" vertex="1" parent="OYG8sfYQL-JVr8ezUTwl-13">
                    <mxGeometry y="30" width="200" height="30" as="geometry"/>
                </mxCell>
                <mxCell id="OYG8sfYQL-JVr8ezUTwl-15" value="PK" style="shape=partialRectangle;connectable=0;fillColor=none;top=0;left=0;bottom=0;right=0;fontStyle=1;overflow=hidden;" vertex="1" parent="OYG8sfYQL-JVr8ezUTwl-14">
                    <mxGeometry width="30" height="30" as="geometry">
                        <mxRectangle width="30" height="30" as="alternateBounds"/>
                    </mxGeometry>
                </mxCell>
                <mxCell id="OYG8sfYQL-JVr8ezUTwl-16" value="CatalogNr: int" style="shape=partialRectangle;connectable=0;fillColor=none;top=0;left=0;bottom=0;right=0;align=left;spacingLeft=6;fontStyle=5;overflow=hidden;" vertex="1" parent="OYG8sfYQL-JVr8ezUTwl-14">
                    <mxGeometry x="30" width="170" height="30" as="geometry">
                        <mxRectangle width="170" height="30" as="alternateBounds"/>
                    </mxGeometry>
                </mxCell>
                <mxCell id="OYG8sfYQL-JVr8ezUTwl-17" value="" style="shape=partialRectangle;collapsible=0;dropTarget=0;pointerEvents=0;fillColor=none;top=0;left=0;bottom=0;right=0;points=[[0,0.5],[1,0.5]];portConstraint=eastwest;" vertex="1" parent="OYG8sfYQL-JVr8ezUTwl-13">
                    <mxGeometry y="60" width="200" height="30" as="geometry"/>
                </mxCell>
                <mxCell id="OYG8sfYQL-JVr8ezUTwl-18" value="" style="shape=partialRectangle;connectable=0;fillColor=none;top=0;left=0;bottom=0;right=0;editable=1;overflow=hidden;" vertex="1" parent="OYG8sfYQL-JVr8ezUTwl-17">
                    <mxGeometry width="30" height="30" as="geometry">
                        <mxRectangle width="30" height="30" as="alternateBounds"/>
                    </mxGeometry>
                </mxCell>
                <mxCell id="OYG8sfYQL-JVr8ezUTwl-19" value="Start Price: int" style="shape=partialRectangle;connectable=0;fillColor=none;top=0;left=0;bottom=0;right=0;align=left;spacingLeft=6;overflow=hidden;" vertex="1" parent="OYG8sfYQL-JVr8ezUTwl-17">
                    <mxGeometry x="30" width="170" height="30" as="geometry">
                        <mxRectangle width="170" height="30" as="alternateBounds"/>
                    </mxGeometry>
                </mxCell>
                <mxCell id="OYG8sfYQL-JVr8ezUTwl-20" value="" style="shape=partialRectangle;collapsible=0;dropTarget=0;pointerEvents=0;fillColor=none;top=0;left=0;bottom=0;right=0;points=[[0,0.5],[1,0.5]];portConstraint=eastwest;" vertex="1" parent="OYG8sfYQL-JVr8ezUTwl-13">
                    <mxGeometry y="90" width="200" height="30" as="geometry"/>
                </mxCell>
                <mxCell id="OYG8sfYQL-JVr8ezUTwl-21" value="" style="shape=partialRectangle;connectable=0;fillColor=none;top=0;left=0;bottom=0;right=0;editable=1;overflow=hidden;" vertex="1" parent="OYG8sfYQL-JVr8ezUTwl-20">
                    <mxGeometry width="30" height="30" as="geometry">
                        <mxRectangle width="30" height="30" as="alternateBounds"/>
                    </mxGeometry>
                </mxCell>
                <mxCell id="OYG8sfYQL-JVr8ezUTwl-22" value="Highest Bid: int" style="shape=partialRectangle;connectable=0;fillColor=none;top=0;left=0;bottom=0;right=0;align=left;spacingLeft=6;overflow=hidden;" vertex="1" parent="OYG8sfYQL-JVr8ezUTwl-20">
                    <mxGeometry x="30" width="170" height="30" as="geometry">
                        <mxRectangle width="170" height="30" as="alternateBounds"/>
                    </mxGeometry>
                </mxCell>
                <mxCell id="OYG8sfYQL-JVr8ezUTwl-23" value="" style="shape=partialRectangle;collapsible=0;dropTarget=0;pointerEvents=0;fillColor=none;top=0;left=0;bottom=0;right=0;points=[[0,0.5],[1,0.5]];portConstraint=eastwest;" vertex="1" parent="OYG8sfYQL-JVr8ezUTwl-13">
                    <mxGeometry y="120" width="200" height="30" as="geometry"/>
                </mxCell>
                <mxCell id="OYG8sfYQL-JVr8ezUTwl-24" value="" style="shape=partialRectangle;connectable=0;fillColor=none;top=0;left=0;bottom=0;right=0;editable=1;overflow=hidden;" vertex="1" parent="OYG8sfYQL-JVr8ezUTwl-23">
                    <mxGeometry width="30" height="30" as="geometry">
                        <mxRectangle width="30" height="30" as="alternateBounds"/>
                    </mxGeometry>
                </mxCell>
                <mxCell id="OYG8sfYQL-JVr8ezUTwl-25" value="Remaining Auction Time: int" style="shape=partialRectangle;connectable=0;fillColor=none;top=0;left=0;bottom=0;right=0;align=left;spacingLeft=6;overflow=hidden;" vertex="1" parent="OYG8sfYQL-JVr8ezUTwl-23">
                    <mxGeometry x="30" width="170" height="30" as="geometry">
                        <mxRectangle width="170" height="30" as="alternateBounds"/>
                    </mxGeometry>
                </mxCell>
                <mxCell id="OYG8sfYQL-JVr8ezUTwl-26" style="edgeStyle=none;html=1;exitX=1;exitY=0.5;exitDx=0;exitDy=0;entryX=0;entryY=0.5;entryDx=0;entryDy=0;endArrow=ERone;endFill=0;startArrow=ERmany;startFill=0;" edge="1" parent="qjB7M2fl9DO1ppy_1SeX-1" source="OYG8sfYQL-JVr8ezUTwl-4" target="OYG8sfYQL-JVr8ezUTwl-17">
                    <mxGeometry relative="1" as="geometry"/>
                </mxCell>
                <mxCell id="OYG8sfYQL-JVr8ezUTwl-27" value="Bid" style="shape=table;startSize=30;container=1;collapsible=1;childLayout=tableLayout;fixedRows=1;rowLines=0;fontStyle=1;align=center;resizeLast=1;" vertex="1" parent="qjB7M2fl9DO1ppy_1SeX-1">
                    <mxGeometry x="640" y="150" width="180" height="160" as="geometry"/>
                </mxCell>
                <mxCell id="OYG8sfYQL-JVr8ezUTwl-28" value="" style="shape=partialRectangle;collapsible=0;dropTarget=0;pointerEvents=0;fillColor=none;top=0;left=0;bottom=1;right=0;points=[[0,0.5],[1,0.5]];portConstraint=eastwest;" vertex="1" parent="OYG8sfYQL-JVr8ezUTwl-27">
                    <mxGeometry y="30" width="180" height="30" as="geometry"/>
                </mxCell>
                <mxCell id="OYG8sfYQL-JVr8ezUTwl-29" value="PK" style="shape=partialRectangle;connectable=0;fillColor=none;top=0;left=0;bottom=0;right=0;fontStyle=1;overflow=hidden;" vertex="1" parent="OYG8sfYQL-JVr8ezUTwl-28">
                    <mxGeometry width="30" height="30" as="geometry">
                        <mxRectangle width="30" height="30" as="alternateBounds"/>
                    </mxGeometry>
                </mxCell>
                <mxCell id="OYG8sfYQL-JVr8ezUTwl-30" value="Bid_ID: int" style="shape=partialRectangle;connectable=0;fillColor=none;top=0;left=0;bottom=0;right=0;align=left;spacingLeft=6;fontStyle=5;overflow=hidden;" vertex="1" parent="OYG8sfYQL-JVr8ezUTwl-28">
                    <mxGeometry x="30" width="150" height="30" as="geometry">
                        <mxRectangle width="150" height="30" as="alternateBounds"/>
                    </mxGeometry>
                </mxCell>
                <mxCell id="OYG8sfYQL-JVr8ezUTwl-31" value="" style="shape=partialRectangle;collapsible=0;dropTarget=0;pointerEvents=0;fillColor=none;top=0;left=0;bottom=0;right=0;points=[[0,0.5],[1,0.5]];portConstraint=eastwest;" vertex="1" parent="OYG8sfYQL-JVr8ezUTwl-27">
                    <mxGeometry y="60" width="180" height="30" as="geometry"/>
                </mxCell>
                <mxCell id="OYG8sfYQL-JVr8ezUTwl-32" value="" style="shape=partialRectangle;connectable=0;fillColor=none;top=0;left=0;bottom=0;right=0;editable=1;overflow=hidden;" vertex="1" parent="OYG8sfYQL-JVr8ezUTwl-31">
                    <mxGeometry width="30" height="30" as="geometry">
                        <mxRectangle width="30" height="30" as="alternateBounds"/>
                    </mxGeometry>
                </mxCell>
                <mxCell id="OYG8sfYQL-JVr8ezUTwl-33" value="Hour: int" style="shape=partialRectangle;connectable=0;fillColor=none;top=0;left=0;bottom=0;right=0;align=left;spacingLeft=6;overflow=hidden;" vertex="1" parent="OYG8sfYQL-JVr8ezUTwl-31">
                    <mxGeometry x="30" width="150" height="30" as="geometry">
                        <mxRectangle width="150" height="30" as="alternateBounds"/>
                    </mxGeometry>
                </mxCell>
                <mxCell id="OYG8sfYQL-JVr8ezUTwl-34" value="" style="shape=partialRectangle;collapsible=0;dropTarget=0;pointerEvents=0;fillColor=none;top=0;left=0;bottom=0;right=0;points=[[0,0.5],[1,0.5]];portConstraint=eastwest;" vertex="1" parent="OYG8sfYQL-JVr8ezUTwl-27">
                    <mxGeometry y="90" width="180" height="30" as="geometry"/>
                </mxCell>
                <mxCell id="OYG8sfYQL-JVr8ezUTwl-35" value="" style="shape=partialRectangle;connectable=0;fillColor=none;top=0;left=0;bottom=0;right=0;editable=1;overflow=hidden;" vertex="1" parent="OYG8sfYQL-JVr8ezUTwl-34">
                    <mxGeometry width="30" height="30" as="geometry">
                        <mxRectangle width="30" height="30" as="alternateBounds"/>
                    </mxGeometry>
                </mxCell>
                <mxCell id="OYG8sfYQL-JVr8ezUTwl-36" value="Date: string" style="shape=partialRectangle;connectable=0;fillColor=none;top=0;left=0;bottom=0;right=0;align=left;spacingLeft=6;overflow=hidden;" vertex="1" parent="OYG8sfYQL-JVr8ezUTwl-34">
                    <mxGeometry x="30" width="150" height="30" as="geometry">
                        <mxRectangle width="150" height="30" as="alternateBounds"/>
                    </mxGeometry>
                </mxCell>
                <mxCell id="OYG8sfYQL-JVr8ezUTwl-37" value="" style="shape=partialRectangle;collapsible=0;dropTarget=0;pointerEvents=0;fillColor=none;top=0;left=0;bottom=0;right=0;points=[[0,0.5],[1,0.5]];portConstraint=eastwest;" vertex="1" parent="OYG8sfYQL-JVr8ezUTwl-27">
                    <mxGeometry y="120" width="180" height="30" as="geometry"/>
                </mxCell>
                <mxCell id="OYG8sfYQL-JVr8ezUTwl-38" value="" style="shape=partialRectangle;connectable=0;fillColor=none;top=0;left=0;bottom=0;right=0;editable=1;overflow=hidden;" vertex="1" parent="OYG8sfYQL-JVr8ezUTwl-37">
                    <mxGeometry width="30" height="30" as="geometry">
                        <mxRectangle width="30" height="30" as="alternateBounds"/>
                    </mxGeometry>
                </mxCell>
                <mxCell id="OYG8sfYQL-JVr8ezUTwl-39" value="Amount: int" style="shape=partialRectangle;connectable=0;fillColor=none;top=0;left=0;bottom=0;right=0;align=left;spacingLeft=6;overflow=hidden;" vertex="1" parent="OYG8sfYQL-JVr8ezUTwl-37">
                    <mxGeometry x="30" width="150" height="30" as="geometry">
                        <mxRectangle width="150" height="30" as="alternateBounds"/>
                    </mxGeometry>
                </mxCell>
                <mxCell id="OYG8sfYQL-JVr8ezUTwl-41" value="Customer" style="shape=table;startSize=30;container=1;collapsible=1;childLayout=tableLayout;fixedRows=1;rowLines=0;fontStyle=1;align=center;resizeLast=1;" vertex="1" parent="qjB7M2fl9DO1ppy_1SeX-1">
                    <mxGeometry x="970" y="150" width="180" height="190" as="geometry"/>
                </mxCell>
                <mxCell id="OYG8sfYQL-JVr8ezUTwl-42" value="" style="shape=partialRectangle;collapsible=0;dropTarget=0;pointerEvents=0;fillColor=none;top=0;left=0;bottom=1;right=0;points=[[0,0.5],[1,0.5]];portConstraint=eastwest;" vertex="1" parent="OYG8sfYQL-JVr8ezUTwl-41">
                    <mxGeometry y="30" width="180" height="30" as="geometry"/>
                </mxCell>
                <mxCell id="OYG8sfYQL-JVr8ezUTwl-43" value="PK" style="shape=partialRectangle;connectable=0;fillColor=none;top=0;left=0;bottom=0;right=0;fontStyle=1;overflow=hidden;" vertex="1" parent="OYG8sfYQL-JVr8ezUTwl-42">
                    <mxGeometry width="30" height="30" as="geometry">
                        <mxRectangle width="30" height="30" as="alternateBounds"/>
                    </mxGeometry>
                </mxCell>
                <mxCell id="OYG8sfYQL-JVr8ezUTwl-44" value="Customer_ID: int" style="shape=partialRectangle;connectable=0;fillColor=none;top=0;left=0;bottom=0;right=0;align=left;spacingLeft=6;fontStyle=5;overflow=hidden;" vertex="1" parent="OYG8sfYQL-JVr8ezUTwl-42">
                    <mxGeometry x="30" width="150" height="30" as="geometry">
                        <mxRectangle width="150" height="30" as="alternateBounds"/>
                    </mxGeometry>
                </mxCell>
                <mxCell id="OYG8sfYQL-JVr8ezUTwl-45" value="" style="shape=partialRectangle;collapsible=0;dropTarget=0;pointerEvents=0;fillColor=none;top=0;left=0;bottom=0;right=0;points=[[0,0.5],[1,0.5]];portConstraint=eastwest;" vertex="1" parent="OYG8sfYQL-JVr8ezUTwl-41">
                    <mxGeometry y="60" width="180" height="30" as="geometry"/>
                </mxCell>
                <mxCell id="OYG8sfYQL-JVr8ezUTwl-46" value="" style="shape=partialRectangle;connectable=0;fillColor=none;top=0;left=0;bottom=0;right=0;editable=1;overflow=hidden;" vertex="1" parent="OYG8sfYQL-JVr8ezUTwl-45">
                    <mxGeometry width="30" height="30" as="geometry">
                        <mxRectangle width="30" height="30" as="alternateBounds"/>
                    </mxGeometry>
                </mxCell>
                <mxCell id="OYG8sfYQL-JVr8ezUTwl-47" value="Username: string" style="shape=partialRectangle;connectable=0;fillColor=none;top=0;left=0;bottom=0;right=0;align=left;spacingLeft=6;overflow=hidden;" vertex="1" parent="OYG8sfYQL-JVr8ezUTwl-45">
                    <mxGeometry x="30" width="150" height="30" as="geometry">
                        <mxRectangle width="150" height="30" as="alternateBounds"/>
                    </mxGeometry>
                </mxCell>
                <mxCell id="OYG8sfYQL-JVr8ezUTwl-48" value="" style="shape=partialRectangle;collapsible=0;dropTarget=0;pointerEvents=0;fillColor=none;top=0;left=0;bottom=0;right=0;points=[[0,0.5],[1,0.5]];portConstraint=eastwest;" vertex="1" parent="OYG8sfYQL-JVr8ezUTwl-41">
                    <mxGeometry y="90" width="180" height="30" as="geometry"/>
                </mxCell>
                <mxCell id="OYG8sfYQL-JVr8ezUTwl-49" value="" style="shape=partialRectangle;connectable=0;fillColor=none;top=0;left=0;bottom=0;right=0;editable=1;overflow=hidden;" vertex="1" parent="OYG8sfYQL-JVr8ezUTwl-48">
                    <mxGeometry width="30" height="30" as="geometry">
                        <mxRectangle width="30" height="30" as="alternateBounds"/>
                    </mxGeometry>
                </mxCell>
                <mxCell id="OYG8sfYQL-JVr8ezUTwl-50" value="Name: string" style="shape=partialRectangle;connectable=0;fillColor=none;top=0;left=0;bottom=0;right=0;align=left;spacingLeft=6;overflow=hidden;" vertex="1" parent="OYG8sfYQL-JVr8ezUTwl-48">
                    <mxGeometry x="30" width="150" height="30" as="geometry">
                        <mxRectangle width="150" height="30" as="alternateBounds"/>
                    </mxGeometry>
                </mxCell>
                <mxCell id="OYG8sfYQL-JVr8ezUTwl-51" value="" style="shape=partialRectangle;collapsible=0;dropTarget=0;pointerEvents=0;fillColor=none;top=0;left=0;bottom=0;right=0;points=[[0,0.5],[1,0.5]];portConstraint=eastwest;" vertex="1" parent="OYG8sfYQL-JVr8ezUTwl-41">
                    <mxGeometry y="120" width="180" height="30" as="geometry"/>
                </mxCell>
                <mxCell id="OYG8sfYQL-JVr8ezUTwl-52" value="" style="shape=partialRectangle;connectable=0;fillColor=none;top=0;left=0;bottom=0;right=0;editable=1;overflow=hidden;" vertex="1" parent="OYG8sfYQL-JVr8ezUTwl-51">
                    <mxGeometry width="30" height="30" as="geometry">
                        <mxRectangle width="30" height="30" as="alternateBounds"/>
                    </mxGeometry>
                </mxCell>
                <mxCell id="OYG8sfYQL-JVr8ezUTwl-53" value="Password: string" style="shape=partialRectangle;connectable=0;fillColor=none;top=0;left=0;bottom=0;right=0;align=left;spacingLeft=6;overflow=hidden;" vertex="1" parent="OYG8sfYQL-JVr8ezUTwl-51">
                    <mxGeometry x="30" width="150" height="30" as="geometry">
                        <mxRectangle width="150" height="30" as="alternateBounds"/>
                    </mxGeometry>
                </mxCell>
                <mxCell id="OYG8sfYQL-JVr8ezUTwl-54" value="" style="shape=partialRectangle;collapsible=0;dropTarget=0;pointerEvents=0;fillColor=none;top=0;left=0;bottom=0;right=0;points=[[0,0.5],[1,0.5]];portConstraint=eastwest;" vertex="1" parent="OYG8sfYQL-JVr8ezUTwl-41">
                    <mxGeometry y="150" width="180" height="30" as="geometry"/>
                </mxCell>
                <mxCell id="OYG8sfYQL-JVr8ezUTwl-55" value="" style="shape=partialRectangle;connectable=0;fillColor=none;top=0;left=0;bottom=0;right=0;editable=1;overflow=hidden;" vertex="1" parent="OYG8sfYQL-JVr8ezUTwl-54">
                    <mxGeometry width="30" height="30" as="geometry">
                        <mxRectangle width="30" height="30" as="alternateBounds"/>
                    </mxGeometry>
                </mxCell>
                <mxCell id="OYG8sfYQL-JVr8ezUTwl-56" value="E-Mail: string" style="shape=partialRectangle;connectable=0;fillColor=none;top=0;left=0;bottom=0;right=0;align=left;spacingLeft=6;overflow=hidden;" vertex="1" parent="OYG8sfYQL-JVr8ezUTwl-54">
                    <mxGeometry x="30" width="150" height="30" as="geometry">
                        <mxRectangle width="150" height="30" as="alternateBounds"/>
                    </mxGeometry>
                </mxCell>
                <mxCell id="OYG8sfYQL-JVr8ezUTwl-58" value="Sold Items" style="shape=table;startSize=30;container=1;collapsible=1;childLayout=tableLayout;fixedRows=1;rowLines=0;fontStyle=1;align=center;resizeLast=1;" vertex="1" parent="qjB7M2fl9DO1ppy_1SeX-1">
                    <mxGeometry x="640" y="360" width="180" height="160" as="geometry"/>
                </mxCell>
                <mxCell id="OYG8sfYQL-JVr8ezUTwl-59" value="" style="shape=partialRectangle;collapsible=0;dropTarget=0;pointerEvents=0;fillColor=none;top=0;left=0;bottom=1;right=0;points=[[0,0.5],[1,0.5]];portConstraint=eastwest;" vertex="1" parent="OYG8sfYQL-JVr8ezUTwl-58">
                    <mxGeometry y="30" width="180" height="30" as="geometry"/>
                </mxCell>
                <mxCell id="OYG8sfYQL-JVr8ezUTwl-60" value="PK" style="shape=partialRectangle;connectable=0;fillColor=none;top=0;left=0;bottom=0;right=0;fontStyle=1;overflow=hidden;" vertex="1" parent="OYG8sfYQL-JVr8ezUTwl-59">
                    <mxGeometry width="30" height="30" as="geometry">
                        <mxRectangle width="30" height="30" as="alternateBounds"/>
                    </mxGeometry>
                </mxCell>
                <mxCell id="OYG8sfYQL-JVr8ezUTwl-61" value="SI_ID" style="shape=partialRectangle;connectable=0;fillColor=none;top=0;left=0;bottom=0;right=0;align=left;spacingLeft=6;fontStyle=5;overflow=hidden;" vertex="1" parent="OYG8sfYQL-JVr8ezUTwl-59">
                    <mxGeometry x="30" width="150" height="30" as="geometry">
                        <mxRectangle width="150" height="30" as="alternateBounds"/>
                    </mxGeometry>
                </mxCell>
                <mxCell id="OYG8sfYQL-JVr8ezUTwl-62" value="" style="shape=partialRectangle;collapsible=0;dropTarget=0;pointerEvents=0;fillColor=none;top=0;left=0;bottom=0;right=0;points=[[0,0.5],[1,0.5]];portConstraint=eastwest;" vertex="1" parent="OYG8sfYQL-JVr8ezUTwl-58">
                    <mxGeometry y="60" width="180" height="30" as="geometry"/>
                </mxCell>
                <mxCell id="OYG8sfYQL-JVr8ezUTwl-63" value="FK" style="shape=partialRectangle;connectable=0;fillColor=none;top=0;left=0;bottom=0;right=0;editable=1;overflow=hidden;fontStyle=1" vertex="1" parent="OYG8sfYQL-JVr8ezUTwl-62">
                    <mxGeometry width="30" height="30" as="geometry">
                        <mxRectangle width="30" height="30" as="alternateBounds"/>
                    </mxGeometry>
                </mxCell>
                <mxCell id="OYG8sfYQL-JVr8ezUTwl-64" value="Highest bid" style="shape=partialRectangle;connectable=0;fillColor=none;top=0;left=0;bottom=0;right=0;align=left;spacingLeft=6;overflow=hidden;fontStyle=1" vertex="1" parent="OYG8sfYQL-JVr8ezUTwl-62">
                    <mxGeometry x="30" width="150" height="30" as="geometry">
                        <mxRectangle width="150" height="30" as="alternateBounds"/>
                    </mxGeometry>
                </mxCell>
                <mxCell id="OYG8sfYQL-JVr8ezUTwl-65" value="" style="shape=partialRectangle;collapsible=0;dropTarget=0;pointerEvents=0;fillColor=none;top=0;left=0;bottom=0;right=0;points=[[0,0.5],[1,0.5]];portConstraint=eastwest;" vertex="1" parent="OYG8sfYQL-JVr8ezUTwl-58">
                    <mxGeometry y="90" width="180" height="30" as="geometry"/>
                </mxCell>
                <mxCell id="OYG8sfYQL-JVr8ezUTwl-66" value="FK" style="shape=partialRectangle;connectable=0;fillColor=none;top=0;left=0;bottom=0;right=0;editable=1;overflow=hidden;fontStyle=1" vertex="1" parent="OYG8sfYQL-JVr8ezUTwl-65">
                    <mxGeometry width="30" height="30" as="geometry">
                        <mxRectangle width="30" height="30" as="alternateBounds"/>
                    </mxGeometry>
                </mxCell>
                <mxCell id="OYG8sfYQL-JVr8ezUTwl-67" value="Customer_ID" style="shape=partialRectangle;connectable=0;fillColor=none;top=0;left=0;bottom=0;right=0;align=left;spacingLeft=6;overflow=hidden;fontStyle=1" vertex="1" parent="OYG8sfYQL-JVr8ezUTwl-65">
                    <mxGeometry x="30" width="150" height="30" as="geometry">
                        <mxRectangle width="150" height="30" as="alternateBounds"/>
                    </mxGeometry>
                </mxCell>
                <mxCell id="OYG8sfYQL-JVr8ezUTwl-71" value="" style="shape=partialRectangle;collapsible=0;dropTarget=0;pointerEvents=0;fillColor=none;top=0;left=0;bottom=0;right=0;points=[[0,0.5],[1,0.5]];portConstraint=eastwest;" vertex="1" parent="OYG8sfYQL-JVr8ezUTwl-58">
                    <mxGeometry y="120" width="180" height="30" as="geometry"/>
                </mxCell>
                <mxCell id="OYG8sfYQL-JVr8ezUTwl-72" value="FK" style="shape=partialRectangle;connectable=0;fillColor=none;top=0;left=0;bottom=0;right=0;editable=1;overflow=hidden;fontStyle=1" vertex="1" parent="OYG8sfYQL-JVr8ezUTwl-71">
                    <mxGeometry width="30" height="30" as="geometry">
                        <mxRectangle width="30" height="30" as="alternateBounds"/>
                    </mxGeometry>
                </mxCell>
                <mxCell id="OYG8sfYQL-JVr8ezUTwl-73" value="Date: string" style="shape=partialRectangle;connectable=0;fillColor=none;top=0;left=0;bottom=0;right=0;align=left;spacingLeft=6;overflow=hidden;fontStyle=1" vertex="1" parent="OYG8sfYQL-JVr8ezUTwl-71">
                    <mxGeometry x="30" width="150" height="30" as="geometry">
                        <mxRectangle width="150" height="30" as="alternateBounds"/>
                    </mxGeometry>
                </mxCell>
                <mxCell id="OYG8sfYQL-JVr8ezUTwl-74" style="edgeStyle=none;html=1;exitX=1;exitY=0.5;exitDx=0;exitDy=0;entryX=0;entryY=0.5;entryDx=0;entryDy=0;startArrow=ERone;startFill=0;endArrow=ERmany;endFill=0;" edge="1" parent="qjB7M2fl9DO1ppy_1SeX-1" source="OYG8sfYQL-JVr8ezUTwl-20" target="OYG8sfYQL-JVr8ezUTwl-62">
                    <mxGeometry relative="1" as="geometry">
                        <Array as="points">
                            <mxPoint x="560" y="255"/>
                            <mxPoint x="560" y="435"/>
                        </Array>
                    </mxGeometry>
                </mxCell>
                <mxCell id="OYG8sfYQL-JVr8ezUTwl-75" style="edgeStyle=none;html=1;exitX=0;exitY=0.5;exitDx=0;exitDy=0;entryX=1;entryY=0.5;entryDx=0;entryDy=0;startArrow=ERone;startFill=0;endArrow=ERmany;endFill=0;" edge="1" parent="qjB7M2fl9DO1ppy_1SeX-1" source="OYG8sfYQL-JVr8ezUTwl-42" target="OYG8sfYQL-JVr8ezUTwl-65">
                    <mxGeometry relative="1" as="geometry">
                        <Array as="points">
                            <mxPoint x="890" y="195"/>
                            <mxPoint x="890" y="465"/>
                        </Array>
                    </mxGeometry>
                </mxCell>
                <mxCell id="OYG8sfYQL-JVr8ezUTwl-76" style="edgeStyle=none;html=1;exitX=0;exitY=0.5;exitDx=0;exitDy=0;entryX=0;entryY=0.5;entryDx=0;entryDy=0;startArrow=ERmany;startFill=0;endArrow=ERone;endFill=0;" edge="1" parent="qjB7M2fl9DO1ppy_1SeX-1" source="OYG8sfYQL-JVr8ezUTwl-71" target="OYG8sfYQL-JVr8ezUTwl-34">
                    <mxGeometry relative="1" as="geometry">
                        <Array as="points">
                            <mxPoint x="590" y="495"/>
                            <mxPoint x="590" y="255"/>
                        </Array>
                    </mxGeometry>
                </mxCell>
            </root>
        </mxGraphModel>
    </diagram>
</mxfile>